<?xml version="1.0" standalone="no"?><!DOCTYPE svg PUBLIC "-//W3C//DTD SVG 1.1//EN" "http://www.w3.org/Graphics/SVG/1.1/DTD/svg11.dtd"><svg t="1627889962114" class="icon" viewBox="0 0 1024 1024" version="1.1" xmlns="http://www.w3.org/2000/svg" p-id="836" xmlns:xlink="http://www.w3.org/1999/xlink" width="200" height="200"><defs><style type="text/css"></style></defs><path d="M512 512m-512 0a512 512 0 1 0 1024 0 512 512 0 1 0-1024 0Z" fill="#E0EAFF" p-id="837"></path><path d="M768.452716 280.651453c49.723284 25.556884 57.839832 73.350737 27.13061 124.227368s-79.042021 69.675116-128.776084 44.118232-80.594189-68.176842-42.102568-131.912758 94.013979-61.978947 143.748042-36.432842z" fill="#FFB22F" p-id="838"></path><path d="M710.936253 471.158568a107.1104 107.1104 0 0 1-49.05499-12.568252c-33.824337-17.386442-54.778611-39.580295-62.269979-65.988716-7.027874-24.737684-1.692295-52.029979 15.855832-81.090021 36.152589-59.855495 92.224674-74.180716 157.911579-40.442611a89.465263 89.465263 0 0 1 47.966316 54.336674c7.286568 25.653895 1.552168 55.069642-16.534906 85.045895-23.950821 39.666526-57.613474 60.707032-93.873852 60.707031z m-3.233685-196.478652c-29.814568 0-54.519916 16.006737-73.814231 47.966316-14.336 23.713684-18.906274 45.271579-13.592253 64.070063 5.799074 20.48 23.099284 38.157474 51.394021 52.687494 43.223579 22.193853 86.059116 7.189558 114.612548-40.086905 14.928842-24.737684 19.8656-48.268126 14.260547-68.025937a67.584 67.584 0 0 0-37.079579-41.046231 123.526737 123.526737 0 0 0-55.737937-15.5648z" fill="#383C50" p-id="839"></path><path d="M255.536505 280.651453c-49.723284 25.556884-57.839832 73.350737-27.119831 124.227368s79.031242 69.675116 128.765305 44.118232 80.594189-68.176842 42.102568-131.912758-94.013979-61.978947-143.748042-36.432842z" fill="#FFB22F" p-id="840"></path><path d="M313.063747 471.158568c-36.271158 0-69.923032-21.040505-93.873852-60.707031-18.108632-29.987032-23.821474-59.392-16.556463-85.045895a89.465263 89.465263 0 0 1 47.987873-54.336674c65.676126-33.748884 121.748211-19.402105 157.9008 40.442611 17.548126 29.103158 22.883705 56.352337 15.866611 81.090021-7.545263 26.408421-28.456421 48.602274-62.280758 65.988716a107.207411 107.207411 0 0 1-49.044211 12.568252z m3.233685-196.478652a123.515958 123.515958 0 0 0-55.770274 15.5648 67.605558 67.605558 0 0 0-37.090358 41.046231c-5.605053 19.757811-0.679074 43.277474 14.260547 68.025937 28.553432 47.276463 71.388968 62.280758 114.612548 40.086905 28.294737-14.530021 45.594947-32.261389 51.394021-52.687494 5.314021-18.766147 0.743747-40.324042-13.592253-64.070063-19.348211-31.959579-44.032-47.966316-73.868126-47.966316z m-60.696253 5.982316z" fill="#383C50" p-id="841"></path><path d="M824.589474 540.143832c0 140.190989-123.677642 219.7504-312.589474 219.7504s-312.589474-79.559411-312.589474-219.7504 75.862232-261.928421 312.589474-261.928421 312.589474 121.802105 312.589474 261.928421z" fill="#FFB22F" p-id="842"></path><path d="M512 770.694737c-199.464421 0-323.368421-88.387368-323.368421-230.529348 0-101.861053 42.037895-272.707368 323.368421-272.707368s323.368421 170.889432 323.368421 272.707368c0 142.185095-123.882442 230.529347-323.368421 230.529348z m0-481.721937c-249.457179 0-301.810526 136.6016-301.810526 251.149474 0 130.856421 112.823242 208.971453 301.810526 208.971452s301.810526-78.115032 301.810526-208.971452c0-114.547874-52.364126-251.127916-301.810526-251.127916z" fill="#383C50" p-id="843"></path><path d="M824.384674 543.819453c-19.164968 93.086989-201.771116 99.683705-232.922274 25.675452a84.636295 84.636295 0 0 0-158.9248 0c-31.172716 74.008253-213.789642 67.411537-232.922274-25.686231 2.155789 137.873516 125.143579 216.107116 312.384674 216.107115s310.196547-78.2336 312.384674-216.096336z" fill="#FFFFFF" p-id="844"></path><path d="M512 770.694737c-197.136168 0-320.964716-86.878316-323.163621-226.724379a10.778947 10.778947 0 0 1 9.604042-10.875958 10.6496 10.6496 0 0 1 11.738274 8.547705c8.8064 42.835537 56.654147 62.517895 98.5088 66.592337 45.735074 4.581053 99.554358-8.795621 113.911916-42.910989a97.010526 97.010526 0 0 1 89.400589-62.108295 97.010526 97.010526 0 0 1 89.389811 62.108295c14.346779 34.115368 68.133726 47.427368 113.8688 42.921768 41.865432-4.096 89.734737-23.713684 98.562694-66.581558a10.778947 10.778947 0 0 1 21.331537 2.328253C832.943158 683.8272 709.114611 770.694737 512 770.694737zM217.734737 594.696084C245.576758 692.364126 351.393684 749.136842 512 749.136842s266.4448-56.772716 294.265263-154.429979a159.787116 159.787116 0 0 1-88.926316 34.999242c-51.976084 5.044547-116.595874-10.283116-135.814736-56.050526a73.878905 73.878905 0 0 0-139.048422 0c-19.272758 45.745853-83.935663 61.062737-135.87941 56.050526a159.808674 159.808674 0 0 1-88.904758-35.010021z" fill="#383C50" p-id="845"></path><path d="M511.956884 617.903158s3.4816 40.1408-33.048252 45.271579a30.364295 30.364295 0 0 1-31.528421-12.040084" fill="#FFFFFF" p-id="846"></path><path d="M472.592168 674.384842a39.882105 39.882105 0 0 1-34.039915-17.09541 10.778947 10.778947 0 0 1 17.666694-12.352674 20.178189 20.178189 0 0 0 21.20219 7.545263c25.352084-3.557053 24.026274-30.622989 23.789137-33.694989a10.778947 10.778947 0 0 1 21.482442-1.821643c1.509053 17.408-5.389474 51.738947-42.285811 56.858948a54.131874 54.131874 0 0 1-7.814737 0.560505z" fill="#383C50" p-id="847"></path><path d="M512.075453 617.860042s-3.492379 40.1408 33.048252 45.271579a30.342737 30.342737 0 0 0 31.517642-12.040084" fill="#FFFFFF" p-id="848"></path><path d="M551.397053 674.341726a53.991747 53.991747 0 0 1-7.803958-0.560505c-36.917895-5.163116-43.805642-39.450947-42.29659-56.858947a10.6496 10.6496 0 0 1 11.6736-9.798063 10.778947 10.778947 0 0 1 9.819621 11.619705c-0.247916 3.115116-1.552168 30.181053 23.799916 33.694989a20.091958 20.091958 0 0 0 21.20219-7.545263 10.778947 10.778947 0 0 1 17.645136 12.374232 39.968337 39.968337 0 0 1-34.039915 17.073852z" fill="#383C50" p-id="849"></path><path d="M535.9616 613.548463a24.198737 24.198737 0 0 1-48.020211 0c0-9.302232 10.778947-12.535916 24.015495-12.535916s24.004716 3.233684 24.004716 12.535916z" fill="#383C50" p-id="850"></path><path d="M511.956884 645.486484a35.214821 35.214821 0 0 1-34.794442-31.938021c0-7.017095 3.395368-23.314863 34.794442-23.314863s34.783663 16.297768 34.783663 23.314863a35.214821 35.214821 0 0 1-34.783663 31.938021z m0-33.694989c-10.843621 0-13.559916 2.403705-13.581473 2.425263a15.586358 15.586358 0 0 0 13.581473 9.701053 14.228211 14.228211 0 0 0 13.225769-10.326232 36.756211 36.756211 0 0 0-13.225769-1.800084z" fill="#383C50" p-id="851"></path><path d="M408.392758 494.958484a103.229979 103.229979 0 0 1-13.592253-1.207242l-2.748631-0.355705a187.672253 187.672253 0 0 0-61.569348 0l-2.910315 0.388042a103.186863 103.186863 0 0 1-13.592253 1.207242 27.453979 27.453979 0 0 1-15.316884-3.826526 17.483453 17.483453 0 0 1-7.7824-11.57659 33.705768 33.705768 0 0 1 7.545263-26.451537 77.856337 77.856337 0 0 1 61.299874-28.736673h2.888757a77.910232 77.910232 0 0 1 61.375327 28.822905 33.565642 33.565642 0 0 1 7.480589 26.365305 17.515789 17.515789 0 0 1-7.911747 11.662821 27.389305 27.389305 0 0 1-15.165979 3.707958z" fill="#FFFFFF" p-id="852"></path><path d="M408.392758 505.748211a113.426863 113.426863 0 0 1-15.025853-1.315032l-2.705516-0.366484a205.382063 205.382063 0 0 0-29.566652-2.446821 201.717221 201.717221 0 0 0-29.006148 2.392926l-3.125894 0.420379a112.101053 112.101053 0 0 1-14.993516 1.315032 38.189811 38.189811 0 0 1-21.083621-5.508043 27.960589 27.960589 0 0 1-12.546695-18.432 44.333811 44.333811 0 0 1 9.485474-35.182484 88.969432 88.969432 0 0 1 69.923031-33.037473h2.877979a89.141895 89.141895 0 0 1 70.063158 33.285389 44.064337 44.064337 0 0 1 9.302232 34.923789 28.283958 28.283958 0 0 1-12.934737 18.669137 37.823326 37.823326 0 0 1-20.663242 5.281685z m-47.3088-25.686232a223.275116 223.275116 0 0 1 32.573979 2.673179l2.522274 0.323368a96.061979 96.061979 0 0 0 12.212547 1.077895 16.502568 16.502568 0 0 0 9.399242-2.069558 7.060211 7.060211 0 0 0 3.158232-4.818189 23.433432 23.433432 0 0 0-5.572716-17.645137 67.691789 67.691789 0 0 0-52.752169-24.511326h-2.877979a67.476211 67.476211 0 0 0-52.568926 24.274189 23.713684 23.713684 0 0 0-5.755958 17.893053 6.9632 6.9632 0 0 0 2.780969 4.581052 16.664253 16.664253 0 0 0 9.765726 2.295916 94.380463 94.380463 0 0 0 12.169432-1.077895l2.953431-0.377263a221.076211 221.076211 0 0 1 31.991916-2.619284z" fill="#383C50" p-id="853"></path><path d="M361.935495 429.293137a90.058105 90.058105 0 0 0-5.22779 31.485305 96.762611 96.762611 0 0 0 3.169011 25.158063h1.304252a218.079663 218.079663 0 0 1 31.603874 2.597727l2.780969 0.366484 1.519831 0.2048a93.431916 93.431916 0 0 0 4.106779-28.305516 98.735158 98.735158 0 0 0-2.4576-22.366316 76.271832 76.271832 0 0 0-36.098695-9.118989z" fill="#383C50" p-id="854"></path><path d="M710.009263 494.958484a103.229979 103.229979 0 0 1-13.592252-1.207242l-2.737853-0.355705a187.736926 187.736926 0 0 0-61.580126 0l-2.910316 0.388042a103.229979 103.229979 0 0 1-13.592253 1.207242 27.475537 27.475537 0 0 1-15.316884-3.826526 17.440337 17.440337 0 0 1-7.771621-11.57659 33.651874 33.651874 0 0 1 7.545263-26.451537 77.856337 77.856337 0 0 1 61.310653-28.736673h2.888758a77.888674 77.888674 0 0 1 61.364547 28.822905 33.619537 33.619537 0 0 1 7.491368 26.365305 17.569684 17.569684 0 0 1-7.922526 11.662821 27.367747 27.367747 0 0 1-15.176758 3.707958z" fill="#FFFFFF" p-id="855"></path><path d="M710.020042 505.748211a113.426863 113.426863 0 0 1-15.090526-1.315032l-2.705516-0.366484a205.382063 205.382063 0 0 0-29.566653-2.446821 201.566316 201.566316 0 0 0-28.995368 2.392926l-3.125895 0.420379a112.4352 112.4352 0 0 1-14.993516 1.315032 38.168253 38.168253 0 0 1-21.083621-5.508043 27.917474 27.917474 0 0 1-12.546694-18.432 44.247579 44.247579 0 0 1 9.485473-35.182484 88.937095 88.937095 0 0 1 69.912253-33.037473h2.888758a89.120337 89.120337 0 0 1 70.063158 33.285389 44.085895 44.085895 0 0 1 9.31301 34.923789 28.283958 28.283958 0 0 1-12.934737 18.669137 37.726316 37.726316 0 0 1-20.620126 5.281685z m-47.319579-25.686232a223.426021 223.426021 0 0 1 32.584758 2.673179l2.533053 0.323368a95.372126 95.372126 0 0 0 12.201768 1.077895 16.545684 16.545684 0 0 0 9.388463-2.058779 7.114105 7.114105 0 0 0 3.169011-4.828968 23.444211 23.444211 0 0 0-5.572716-17.645137 67.724126 67.724126 0 0 0-52.752168-24.511326h-2.888758a67.497768 67.497768 0 0 0-52.568927 24.274189 23.713684 23.713684 0 0 0-5.745179 17.893053 6.952421 6.952421 0 0 0 2.780969 4.581052 16.642695 16.642695 0 0 0 9.765726 2.295916 94.714611 94.714611 0 0 0 12.169432-1.077895l2.942652-0.377263a221.076211 221.076211 0 0 1 31.991916-2.619284z" fill="#383C50" p-id="856"></path><path d="M663.552 429.293137a90.068884 90.068884 0 0 0-5.217011 31.485305 96.838063 96.838063 0 0 0 3.158232 25.158063h1.304253a217.810189 217.810189 0 0 1 31.603873 2.597727l2.780969 0.366484 1.53061 0.2048a93.431916 93.431916 0 0 0 4.106779-28.305516 99.414232 99.414232 0 0 0-2.4576-22.366316 76.314947 76.314947 0 0 0-36.109473-9.118989z" fill="#383C50" p-id="857"></path></svg>